HIERARCHY
ROOT Hips
{
	OFFSET 0.000000 87.230942 0.000000
	CHANNELS 6 Xposition Yposition Zposition Xrotation Yrotation Zrotation
	JOINT Pelvis
	{
		OFFSET 0.000000 0.000000 0.000000
		CHANNELS 3 Xrotation Yrotation Zrotation
		JOINT LeftUpLeg
		{
			OFFSET 12.017000 -9.376404 -2.439400
			CHANNELS 3 Xrotation Yrotation Zrotation
			JOINT LeftLeg
			{
				OFFSET -0.007312 -32.846973 2.110600
				CHANNELS 3 Xrotation Yrotation Zrotation
				JOINT LeftFoot
				{
					OFFSET 0.007312 -32.065170 -0.570400
					CHANNELS 3 Xrotation Yrotation Zrotation
					JOINT LeftToeBase
					{
						OFFSET 0.728300 -11.045900 13.180700
						CHANNELS 3 Xrotation Yrotation Zrotation
						End Site
						{
							OFFSET 0.000000 17.212589 0.000000
						}
					}
				}
				JOINT LeftPantLeg
				{
					OFFSET 0.002788 -16.709013 -3.143600
					CHANNELS 3 Xrotation Yrotation Zrotation
					End Site
					{
						OFFSET -0.605125 24.528742 0.000000
					}
				}
			}
			JOINT Left_Butt
			{
				OFFSET -6.630234 1.326584 -3.183700
				CHANNELS 3 Xrotation Yrotation Zrotation
				End Site
				{
					OFFSET -0.498041 20.188049 0.000000
				}
			}
		}
		JOINT RightUpLeg
		{
			OFFSET -11.717000 -9.376404 -2.439400
			CHANNELS 3 Xrotation Yrotation Zrotation
			JOINT RightLeg
			{
				OFFSET -0.003241 -32.846912 2.110600
				CHANNELS 3 Xrotation Yrotation Zrotation
				JOINT RightFoot
				{
					OFFSET 0.003241 -32.065136 -0.570500
					CHANNELS 3 Xrotation Yrotation Zrotation
					JOINT RightToeBase
					{
						OFFSET -0.728300 -11.045901 13.180700
						CHANNELS 3 Xrotation Yrotation Zrotation
						End Site
						{
							OFFSET 0.000000 17.212593 0.000000
						}
					}
				}
				JOINT RightPantLeg
				{
					OFFSET 0.008142 -16.708982 -3.143700
					CHANNELS 3 Xrotation Yrotation Zrotation
					End Site
					{
						OFFSET 0.605088 24.528715 0.000000
					}
				}
			}
			JOINT Right_Butt
			{
				OFFSET 6.630732 1.326584 -3.183700
				CHANNELS 3 Xrotation Yrotation Zrotation
				End Site
				{
					OFFSET 0.498015 20.188240 0.000000
				}
			}
		}
	}
	JOINT Spine
	{
		OFFSET -0.062400 7.848404 3.918300
		CHANNELS 3 Xrotation Yrotation Zrotation
		JOINT Spine1
		{
			OFFSET -0.072800 11.422302 0.713400
			CHANNELS 3 Xrotation Yrotation Zrotation
			JOINT Spine2
			{
				OFFSET -0.083200 13.054001 -1.931600
				CHANNELS 3 Xrotation Yrotation Zrotation
				JOINT Neck
				{
					OFFSET -0.092200 14.121796 -5.138800
					CHANNELS 3 Xrotation Yrotation Zrotation
					JOINT Head
					{
						OFFSET 0.000200 10.447403 -0.842000
						CHANNELS 3 Xrotation Yrotation Zrotation
						JOINT Visor
						{
							OFFSET 0.457100 25.671204 16.550400
							CHANNELS 3 Xrotation Yrotation Zrotation
							End Site
							{
								OFFSET 0.000000 26.061493 0.000000
							}
						}
						JOINT HairMidA
						{
							OFFSET 0.459400 31.585403 8.437400
							CHANNELS 3 Xrotation Yrotation Zrotation
							End Site
							{
								OFFSET 0.000000 26.061493 0.000000
							}
						}
						JOINT HairMidB
						{
							OFFSET 0.464000 33.309204 -8.389700
							CHANNELS 3 Xrotation Yrotation Zrotation
							End Site
							{
								OFFSET 0.000000 26.061493 0.000000
							}
						}
						JOINT HairMidC
						{
							OFFSET 0.466600 27.991196 -17.375099
							CHANNELS 3 Xrotation Yrotation Zrotation
							End Site
							{
								OFFSET 0.000000 26.061493 0.000000
							}
						}
						JOINT HairMidD
						{
							OFFSET 0.467700 17.888092 -21.169500
							CHANNELS 3 Xrotation Yrotation Zrotation
							End Site
							{
								OFFSET 0.000000 26.061493 0.000000
							}
						}
						JOINT HairMidE
						{
							OFFSET 5.325700 3.514603 -14.369699
							CHANNELS 3 Xrotation Yrotation Zrotation
							End Site
							{
								OFFSET 0.000000 26.061493 0.000000
							}
						}
						JOINT HairMidF
						{
							OFFSET -4.394100 3.514603 -14.372400
							CHANNELS 3 Xrotation Yrotation Zrotation
							End Site
							{
								OFFSET 0.000000 26.061493 0.000000
							}
						}
						JOINT HairLeftA
						{
							OFFSET 15.319900 25.746506 2.623300
							CHANNELS 3 Xrotation Yrotation Zrotation
							End Site
							{
								OFFSET 0.000000 26.061493 0.000000
							}
						}
						JOINT HairLeftB
						{
							OFFSET 12.619500 29.289398 -8.731499
							CHANNELS 3 Xrotation Yrotation Zrotation
							End Site
							{
								OFFSET 0.000000 26.061493 0.000000
							}
						}
						JOINT HairLeftC
						{
							OFFSET 15.714800 15.959900 2.909800
							CHANNELS 3 Xrotation Yrotation Zrotation
							End Site
							{
								OFFSET 0.000000 26.061493 0.000000
							}
						}
						JOINT HairLeftD
						{
							OFFSET 16.101700 18.437408 -7.553200
							CHANNELS 3 Xrotation Yrotation Zrotation
							End Site
							{
								OFFSET 0.000000 26.061493 0.000000
							}
						}
						JOINT HairLeftE
						{
							OFFSET 9.731900 17.915009 -18.316799
							CHANNELS 3 Xrotation Yrotation Zrotation
							End Site
							{
								OFFSET 0.000000 26.061493 0.000000
							}
						}
						JOINT HairLeftF
						{
							OFFSET 11.204300 4.953598 -9.668100
							CHANNELS 3 Xrotation Yrotation Zrotation
							End Site
							{
								OFFSET 0.000000 26.061493 0.000000
							}
						}
						JOINT HairRightA
						{
							OFFSET -14.397900 25.746307 2.615100
							CHANNELS 3 Xrotation Yrotation Zrotation
							End Site
							{
								OFFSET 0.000000 26.061493 0.000000
							}
						}
						JOINT HairRightB
						{
							OFFSET -11.691200 29.289200 -8.738199
							CHANNELS 3 Xrotation Yrotation Zrotation
							End Site
							{
								OFFSET 0.000000 26.061493 0.000000
							}
						}
						JOINT HairRightC
						{
							OFFSET -14.792900 15.959702 2.901400
							CHANNELS 3 Xrotation Yrotation Zrotation
							End Site
							{
								OFFSET 0.000000 26.061493 0.000000
							}
						}
						JOINT HairRightD
						{
							OFFSET -15.174000 18.437195 -7.561900
							CHANNELS 3 Xrotation Yrotation Zrotation
							End Site
							{
								OFFSET 0.000000 26.061493 0.000000
							}
						}
						JOINT HairRightE
						{
							OFFSET -8.798200 17.914902 -18.322001
							CHANNELS 3 Xrotation Yrotation Zrotation
							End Site
							{
								OFFSET 0.000000 26.061493 0.000000
							}
						}
						JOINT HairRightF
						{
							OFFSET -10.275200 4.953506 -9.674099
							CHANNELS 3 Xrotation Yrotation Zrotation
							End Site
							{
								OFFSET 0.000000 26.061493 0.000000
							}
						}
					}
				}
				JOINT LeftShoulder
				{
					OFFSET 5.133500 7.341202 -1.867600
					CHANNELS 3 Xrotation Yrotation Zrotation
					JOINT LeftArm
					{
						OFFSET 8.072663 0.936867 -2.176600
						CHANNELS 3 Xrotation Yrotation Zrotation
						JOINT LeftForeArm
						{
							OFFSET 31.271999 0.000000 0.000000
							CHANNELS 3 Xrotation Yrotation Zrotation
							JOINT LeftHand
							{
								OFFSET 31.771030 0.000000 0.000000
								CHANNELS 3 Xrotation Yrotation Zrotation
								JOINT LeftHandThumb1
								{
									OFFSET 2.886520 -2.557846 4.416640
									CHANNELS 3 Xrotation Yrotation Zrotation
									JOINT LeftHandThumb2
									{
										OFFSET 2.371025 -1.368912 1.368911
										CHANNELS 3 Xrotation Yrotation Zrotation
										JOINT LeftHandThumb3
										{
											OFFSET 2.243378 -1.295212 1.295213
											CHANNELS 3 Xrotation Yrotation Zrotation
											End Site
											{
												OFFSET -0.332611 2.876945 0.020015
											}
										}
									}
								}
								JOINT LeftHandIndex1
								{
									OFFSET 8.568985 -0.641945 3.119977
									CHANNELS 3 Xrotation Yrotation Zrotation
									JOINT LeftHandIndex2
									{
										OFFSET 3.348503 0.000000 0.000000
										CHANNELS 3 Xrotation Yrotation Zrotation
										JOINT LeftHandIndex3
										{
											OFFSET 3.314552 0.000000 0.000000
											CHANNELS 3 Xrotation Yrotation Zrotation
											End Site
											{
												OFFSET -1.032898 3.075485 0.678796
											}
										}
									}
								}
								JOINT LeftHandMiddle1
								{
									OFFSET 8.124603 0.000000 0.000000
									CHANNELS 3 Xrotation Yrotation Zrotation
									JOINT LeftHandMiddle2
									{
										OFFSET 4.166275 0.000000 0.000000
										CHANNELS 3 Xrotation Yrotation Zrotation
										JOINT LeftHandMiddle3
										{
											OFFSET 3.018135 0.000000 0.000000
											CHANNELS 3 Xrotation Yrotation Zrotation
											End Site
											{
												OFFSET -1.032700 2.767982 0.617226
											}
										}
									}
								}
								JOINT LeftHandRing1
								{
									OFFSET 8.571686 -0.031357 -2.884048
									CHANNELS 3 Xrotation Yrotation Zrotation
									JOINT LeftHandRing2
									{
										OFFSET 3.671181 0.000000 0.000000
										CHANNELS 3 Xrotation Yrotation Zrotation
										JOINT LeftHandRing3
										{
											OFFSET 2.728851 0.000000 0.000000
											CHANNELS 3 Xrotation Yrotation Zrotation
											End Site
											{
												OFFSET -0.815796 2.539223 0.577389
											}
										}
									}
								}
								JOINT LeftHandPinky1
								{
									OFFSET 7.854515 -0.675232 -5.213020
									CHANNELS 3 Xrotation Yrotation Zrotation
									JOINT LeftHandPinky2
									{
										OFFSET 3.068596 0.000000 0.000000
										CHANNELS 3 Xrotation Yrotation Zrotation
										JOINT LeftHandPinky3
										{
											OFFSET 2.396042 0.000000 0.000000
											CHANNELS 3 Xrotation Yrotation Zrotation
											End Site
											{
												OFFSET -0.524597 2.267998 0.567429
											}
										}
									}
								}
							}
							JOINT LeftSleeve
							{
								OFFSET 19.684509 -0.200119 0.476146
								CHANNELS 3 Xrotation Yrotation Zrotation
								End Site
								{
									OFFSET -0.031017 25.731133 -0.002868
								}
							}
						}
					}
				}
				JOINT RightShoulder
				{
					OFFSET -4.395900 7.341202 -1.870200
					CHANNELS 3 Xrotation Yrotation Zrotation
					JOINT RightArm
					{
						OFFSET -8.071453 0.936867 -2.181100
						CHANNELS 3 Xrotation Yrotation Zrotation
						JOINT RightForeArm
						{
							OFFSET -31.272011 0.000000 0.000000
							CHANNELS 3 Xrotation Yrotation Zrotation
							JOINT RightHand
							{
								OFFSET -31.771019 0.000000 0.000000
								CHANNELS 3 Xrotation Yrotation Zrotation
								JOINT RightHandThumb1
								{
									OFFSET -2.886520 -2.557808 4.416626
									CHANNELS 3 Xrotation Yrotation Zrotation
									JOINT RightHandThumb2
									{
										OFFSET -2.371056 -1.368927 1.368928
										CHANNELS 3 Xrotation Yrotation Zrotation
										JOINT RightHandThumb3
										{
											OFFSET -2.243362 -1.295204 1.295206
											CHANNELS 3 Xrotation Yrotation Zrotation
											End Site
											{
												OFFSET 0.332642 2.876938 0.020047
											}
										}
									}
								}
								JOINT RightHandIndex1
								{
									OFFSET -8.568993 -0.641953 3.120017
									CHANNELS 3 Xrotation Yrotation Zrotation
									JOINT RightHandIndex2
									{
										OFFSET -3.348518 0.000000 0.000000
										CHANNELS 3 Xrotation Yrotation Zrotation
										JOINT RightHandIndex3
										{
											OFFSET -3.314552 0.000000 0.000000
											CHANNELS 3 Xrotation Yrotation Zrotation
											End Site
											{
												OFFSET 1.032898 3.075478 0.678804
											}
										}
									}
								}
								JOINT RightHandMiddle1
								{
									OFFSET -8.124588 0.000000 0.000000
									CHANNELS 3 Xrotation Yrotation Zrotation
									JOINT RightHandMiddle2
									{
										OFFSET -4.166275 0.000000 0.000000
										CHANNELS 3 Xrotation Yrotation Zrotation
										JOINT RightHandMiddle3
										{
											OFFSET -3.018097 0.000000 0.000000
											CHANNELS 3 Xrotation Yrotation Zrotation
											End Site
											{
												OFFSET 1.032700 2.767937 0.617197
											}
										}
									}
								}
								JOINT RightHandRing1
								{
									OFFSET -8.571747 -0.031349 -2.884061
									CHANNELS 3 Xrotation Yrotation Zrotation
									JOINT RightHandRing2
									{
										OFFSET -3.671204 0.000000 0.000000
										CHANNELS 3 Xrotation Yrotation Zrotation
										JOINT RightHandRing3
										{
											OFFSET -2.728874 0.000000 0.000000
											CHANNELS 3 Xrotation Yrotation Zrotation
											End Site
											{
												OFFSET 0.815804 2.539261 0.577413
											}
										}
									}
								}
								JOINT RightHandPinky1
								{
									OFFSET -7.854561 -0.675247 -5.212970
									CHANNELS 3 Xrotation Yrotation Zrotation
									JOINT RightHandPinky2
									{
										OFFSET -3.068550 0.000000 0.000000
										CHANNELS 3 Xrotation Yrotation Zrotation
										JOINT RightHandPinky3
										{
											OFFSET -2.395981 0.000000 0.000000
											CHANNELS 3 Xrotation Yrotation Zrotation
											End Site
											{
												OFFSET 0.524605 2.267952 0.567413
											}
										}
									}
								}
							}
							JOINT RightSleeve
							{
								OFFSET -19.684753 -0.200165 0.476065
								CHANNELS 3 Xrotation Yrotation Zrotation
								End Site
								{
									OFFSET 0.031342 25.731255 -0.002917
								}
							}
						}
					}
				}
				JOINT Hood
				{
					OFFSET 0.369700 14.447800 -5.317800
					CHANNELS 3 Xrotation Yrotation Zrotation
					JOINT Hood1
					{
						OFFSET 0.001700 -5.553802 -5.895100
						CHANNELS 3 Xrotation Yrotation Zrotation
						JOINT Hood2
						{
							OFFSET -0.000200 -8.380501 0.763600
							CHANNELS 3 Xrotation Yrotation Zrotation
							End Site
							{
								OFFSET 0.000000 8.415215 0.000000
							}
						}
					}
				}
				JOINT Left_Breast
				{
					OFFSET 5.682500 3.120102 3.188800
					CHANNELS 3 Xrotation Yrotation Zrotation
					End Site
					{
						OFFSET 0.000000 10.528564 0.000000
					}
				}
				JOINT Right_Breast
				{
					OFFSET -4.947600 3.120102 3.185900
					CHANNELS 3 Xrotation Yrotation Zrotation
					End Site
					{
						OFFSET 0.000000 10.528564 0.000000
					}
				}
				JOINT Whistle
				{
					OFFSET 0.368200 11.471298 0.095400
					CHANNELS 3 Xrotation Yrotation Zrotation
					JOINT Whistle1
					{
						OFFSET -0.002000 -6.349899 7.479800
						CHANNELS 3 Xrotation Yrotation Zrotation
						JOINT Whistle2
						{
							OFFSET -0.001300 -8.217598 4.717600
							CHANNELS 3 Xrotation Yrotation Zrotation
							End Site
							{
								OFFSET 0.000000 9.475479 0.000000
							}
						}
					}
				}
			}
		}
		JOINT Belly
		{
			OFFSET 0.212400 1.593002 3.163700
			CHANNELS 3 Xrotation Yrotation Zrotation
			End Site
			{
				OFFSET 0.000000 7.496635 0.000000
			}
		}
	}
	JOINT FitGrandmaFacialAnim_Joint
	{
		OFFSET 1.150000 -86.211197 -1.220100
		CHANNELS 3 Xrotation Yrotation Zrotation
		End Site
		{
			OFFSET 0.000000 31.666618 0.000000
		}
	}
}
MOTION
Frames: 4
Frame Time: 0.016667
10.176597 76.082634 3.197469 9.487368 -0.511217 -10.392945 -0.000000 0.000000 -0.000000 -50.769025 -7.489824 28.487081 51.544907 -2.407268 -1.797852 -8.076880 1.526974 -12.812547 0.000000 0.000000 0.000000 0.000000 -0.000000 -0.000001 -0.000003 0.000001 0.000000 -35.893320 -26.147523 4.015307 53.395028 5.909733 -0.837969 -27.116688 -19.631470 -7.472424 -0.000000 -0.000002 -0.000000 0.000001 -0.000002 0.000001 0.000002 0.000002 0.000001 8.494720 -3.404314 -7.137353 6.795707 -2.703226 -6.539375 6.822733 -2.529057 -6.561659 -6.756034 -0.095607 -6.250958 -31.736764 -12.121328 11.385210 -0.000002 -0.000000 -0.000002 -0.000002 -0.000000 -0.000002 -0.000002 -0.000000 -0.000002 -0.000002 -0.000000 -0.000002 -0.000002 -0.000000 -0.000002 -0.000002 -0.000000 -0.000002 -0.000002 -0.000000 -0.000002 -0.000002 -0.000000 -0.000002 -0.000002 -0.000000 -0.000002 -0.000002 -0.000000 -0.000002 -0.000002 -0.000000 -0.000002 -0.000002 -0.000000 -0.000002 -0.000002 -0.000000 -0.000002 -0.000002 -0.000000 -0.000002 -0.000002 -0.000000 -0.000002 -0.000002 -0.000000 -0.000002 -0.000002 -0.000000 -0.000002 -0.000002 -0.000000 -0.000002 -0.000002 -0.000000 -0.000002 0.657406 -5.474599 -9.273248 -31.650881 6.573776 -19.060522 0.000023 -57.717250 0.000044 -13.439169 -6.592296 17.306755 -6.000714 -6.126810 4.616765 7.611092 24.884954 2.404815 -0.000000 -0.000001 0.000003 2.912859 7.374241 -59.057955 2.905699 5.057875 -59.732251 0.000001 -0.000000 0.000002 2.252965 6.917787 -51.180766 3.608281 5.405523 -67.425858 -0.000001 -0.000003 -0.000000 3.218388 7.543765 -62.485371 3.684686 5.436566 -68.234327 0.000002 0.000001 -0.000001 3.994143 7.876022 -70.768819 2.411819 4.736393 -53.951756 -0.000001 -0.000001 0.000001 -0.000000 0.000001 -0.000001 0.361048 -0.787754 2.746812 26.141075 -12.666224 76.530822 -0.000020 79.226779 0.000042 -6.073263 16.835013 -10.845145 -7.540278 -3.885170 -4.751897 7.955435 -28.077803 -3.121260 -0.000000 0.000001 -0.000004 0.055201 3.456513 6.528604 0.319245 -1.696232 21.316708 -0.000003 0.000003 0.000007 -0.862785 -0.131509 17.725488 0.409669 -1.911703 24.188128 -0.000001 -0.000006 0.000001 2.184510 -6.710198 36.224175 0.531175 -2.161824 27.606160 -0.000003 -0.000000 -0.000001 6.372319 -15.465794 52.716961 0.699900 -2.457391 31.790938 -0.000001 0.000002 -0.000001 0.000000 -0.000000 -0.000000 0.000005 0.000001 0.000001 0.000005 0.000001 0.000001 0.000005 0.000001 0.000001 0.000005 0.000001 0.000001 0.000005 0.000001 0.000001 0.000005 0.000001 0.000001 0.000001 0.000001 0.000001 0.000001 0.000001 0.000001 0.000001 0.000001 -0.000000 -0.000000 0.000000 -0.000000 
10.150152 75.750504 2.629107 9.236282 -1.593704 -10.109921 -0.000001 -0.000000 -0.000001 -51.008102 -7.787910 28.664613 52.548091 -1.652210 -1.796906 -8.217696 1.539256 -12.949900 -0.000000 -0.000001 -0.000000 -0.000000 0.000001 0.000000 0.000002 -0.000000 0.000002 -37.100614 -25.233220 4.125818 54.487062 5.968443 -0.836714 -26.956844 -19.800423 -7.760427 -0.000000 0.000000 0.000000 0.000002 0.000000 0.000000 0.000000 0.000001 0.000000 8.982805 -3.047546 -6.848527 7.111672 -2.571605 -6.414010 7.134267 -2.411998 -6.415064 -6.827568 -0.078843 -6.203648 -31.801487 -11.665238 10.997518 -0.000000 0.000000 0.000001 -0.000000 0.000000 0.000001 -0.000000 0.000000 0.000001 -0.000000 0.000000 0.000001 -0.000000 0.000000 0.000001 -0.000000 0.000000 0.000001 -0.000000 0.000000 0.000001 -0.000000 0.000000 0.000001 -0.000000 0.000000 0.000001 -0.000000 0.000000 0.000001 -0.000000 0.000000 0.000001 -0.000000 0.000000 0.000001 -0.000000 0.000000 0.000001 -0.000000 0.000000 0.000001 -0.000000 0.000000 0.000001 -0.000000 0.000000 0.000001 -0.000000 0.000000 0.000001 -0.000000 0.000000 0.000001 -0.000000 0.000000 0.000001 0.636259 -5.572587 -9.846502 -30.413091 9.620333 -20.356733 -0.000041 -56.736991 -0.000046 -14.343215 -6.360664 17.068875 -6.000716 -6.126809 4.616756 7.611093 24.884958 2.404813 0.000002 -0.000000 0.000002 2.751047 7.274424 -57.192866 2.743405 4.959981 -57.873614 0.000002 -0.000001 0.000000 2.121142 6.809301 -49.506212 3.475096 5.348453 -66.004599 0.000001 0.000002 0.000003 3.090082 7.475483 -61.059835 3.661150 5.427165 -67.985750 -0.000002 -0.000001 0.000000 3.970091 7.867637 -70.519190 2.461732 4.772195 -54.554022 0.000004 0.000000 -0.000001 -0.000001 -0.000002 0.000002 0.436002 -0.154701 3.207687 23.731627 -11.004972 75.385303 0.000033 77.036303 -0.000022 -6.027876 16.951331 -10.577455 -7.540280 -3.885174 -4.751903 7.955428 -28.077798 -3.121261 0.000001 0.000001 0.000001 0.053058 3.449683 6.560496 0.320773 -1.700124 21.368013 -0.000001 -0.000002 -0.000001 -0.863774 -0.045902 17.352796 0.369566 -1.819834 22.956438 -0.000004 -0.000001 0.000000 2.141060 -6.687486 35.625830 0.466195 -2.032808 25.830570 -0.000004 0.000003 -0.000000 6.464558 -15.829424 52.143549 0.608261 -2.303109 29.584712 -0.000003 0.000001 0.000002 -0.000001 0.000001 -0.000002 0.000002 0.000001 0.000001 0.000002 0.000001 0.000001 0.000002 0.000001 0.000001 0.000002 0.000001 0.000001 0.000002 0.000001 0.000001 0.000002 0.000001 0.000001 -0.000001 0.000001 -0.000000 -0.000001 0.000001 -0.000000 -0.000002 0.000000 0.000001 -0.000001 -0.000000 -0.000001 
10.102450 75.506065 2.315631 8.960097 -2.984436 -9.803444 -0.000001 0.000000 0.000000 -50.780681 -8.022256 29.027157 53.574208 -0.447754 -1.796472 -8.633269 1.612341 -13.355698 -0.000000 -0.000001 -0.000000 0.000001 -0.000000 0.000001 -0.000000 0.000000 0.000002 -37.853848 -24.455375 4.348287 55.285843 6.387343 -0.835902 -26.851111 -19.800146 -8.170559 -0.000000 -0.000002 -0.000000 -0.000000 0.000000 -0.000001 0.000003 0.000000 -0.000002 9.430002 -2.692344 -6.571813 7.403569 -2.428329 -6.253434 7.422361 -2.272614 -6.260116 -6.781098 -0.061883 -6.124024 -31.448196 -11.031242 10.615898 -0.000000 0.000000 -0.000003 -0.000000 0.000000 -0.000003 -0.000000 0.000000 -0.000003 -0.000000 0.000000 -0.000003 -0.000000 0.000000 -0.000003 -0.000000 0.000000 -0.000003 -0.000000 0.000000 -0.000003 -0.000000 0.000000 -0.000003 -0.000000 0.000000 -0.000003 -0.000000 0.000000 -0.000003 -0.000000 0.000000 -0.000003 -0.000000 0.000000 -0.000003 -0.000000 0.000000 -0.000003 -0.000000 0.000000 -0.000003 -0.000000 0.000000 -0.000003 -0.000000 0.000000 -0.000003 -0.000000 0.000000 -0.000003 -0.000000 0.000000 -0.000003 -0.000000 0.000000 -0.000003 0.598235 -5.646891 -10.458245 -29.130070 12.344781 -22.295056 -0.000019 -55.646962 -0.000013 -14.802864 -6.104339 16.567013 -6.000717 -6.126809 4.616757 7.611090 24.884954 2.404813 0.000000 -0.000001 -0.000002 2.566460 7.151406 -55.016617 2.558147 4.839133 -55.704704 0.000003 -0.000002 0.000000 1.968716 6.675450 -47.516277 3.314504 5.274364 -64.269806 0.000000 -0.000003 0.000002 2.935872 7.387875 -59.319961 3.593745 5.399513 -67.271162 0.000002 0.000001 -0.000001 3.901185 7.843033 -69.801528 2.469461 4.777666 -54.646766 -0.000001 -0.000002 0.000000 0.000001 -0.000000 0.000001 0.490282 0.533999 3.685335 21.315671 -9.569344 74.194310 0.000053 75.301347 -0.000051 -5.901955 17.065883 -10.420032 -7.540283 -3.885176 -4.751893 7.955427 -28.077794 -3.121262 0.000001 -0.000000 -0.000004 0.047255 3.429592 6.654585 0.325276 -1.711597 21.519462 -0.000003 -0.000001 0.000005 -0.863925 -0.016329 17.224351 0.341045 -1.751005 22.041150 -0.000001 0.000001 -0.000002 2.108127 -6.669275 35.181212 0.413869 -1.921014 24.313643 -0.000000 -0.000003 0.000002 6.538817 -16.144257 51.652349 0.530196 -2.159924 27.579933 0.000004 0.000000 -0.000004 -0.000003 -0.000001 -0.000000 0.000001 -0.000000 0.000000 0.000001 -0.000000 0.000000 0.000001 -0.000000 0.000000 0.000001 -0.000000 0.000000 0.000001 -0.000000 0.000000 0.000001 -0.000000 0.000000 0.000001 0.000001 0.000002 0.000001 0.000001 0.000002 0.000003 0.000000 0.000001 -0.000001 0.000000 0.000000 
10.036877 75.289673 2.056510 8.763685 -4.088120 -9.538912 -0.000000 0.000000 -0.000000 -50.771965 -8.158361 29.213300 54.598282 0.513376 -1.794765 -9.034084 1.656730 -13.380789 -0.000000 0.000001 -0.000000 -0.000000 0.000002 0.000001 0.000003 -0.000000 0.000001 -38.528933 -23.668600 4.608940 55.982221 6.530124 -0.835542 -26.775808 -19.838168 -8.423980 -0.000000 -0.000002 -0.000000 -0.000000 0.000001 0.000000 0.000001 -0.000001 -0.000000 9.797182 -2.404700 -6.355384 7.641412 -2.286363 -6.122388 7.656622 -2.105085 -6.121622 -6.723331 -0.048809 -5.995123 -31.190045 -10.624254 10.322454 -0.000000 -0.000000 -0.000001 -0.000000 -0.000000 -0.000001 -0.000000 -0.000000 -0.000001 -0.000000 -0.000000 -0.000001 -0.000000 -0.000000 -0.000001 -0.000000 -0.000000 -0.000001 -0.000000 -0.000000 -0.000001 -0.000000 -0.000000 -0.000001 -0.000000 -0.000000 -0.000001 -0.000000 -0.000000 -0.000001 -0.000000 -0.000000 -0.000001 -0.000000 -0.000000 -0.000001 -0.000000 -0.000000 -0.000001 -0.000000 -0.000000 -0.000001 -0.000000 -0.000000 -0.000001 -0.000000 -0.000000 -0.000001 -0.000000 -0.000000 -0.000001 -0.000000 -0.000000 -0.000001 -0.000000 -0.000000 -0.000001 0.557993 -5.698686 -11.061483 -27.972075 14.186042 -24.353215 -0.000016 -54.075144 0.000007 -14.800742 -5.737583 15.942812 -6.000716 -6.126809 4.616755 7.611091 24.884951 2.404810 0.000000 -0.000001 -0.000001 2.366240 7.006011 -52.589281 2.357028 4.696152 -53.285362 0.000009 -0.000001 0.000004 1.801728 6.517414 -45.261314 3.131647 5.182644 -62.263588 0.000001 -0.000001 -0.000002 2.760945 7.280772 -57.308060 3.487496 5.353972 -66.137254 0.000003 0.000000 0.000002 3.792468 7.802177 -68.662826 2.448832 4.763012 -54.398710 -0.000004 -0.000002 -0.000001 0.000003 -0.000001 0.000001 0.544759 1.131272 4.238594 19.483448 -8.250654 73.006649 0.000013 73.739036 -0.000010 -5.737849 17.098182 -10.273459 -7.540282 -3.885175 -4.751900 7.955433 -28.077799 -3.121259 0.000001 0.000001 0.000001 0.037150 3.396647 6.808484 0.332722 -1.730343 21.767178 0.000000 -0.000002 0.000004 -0.863997 -0.023508 17.257057 0.323839 -1.707920 21.470894 -0.000006 0.000001 -0.000003 2.087609 -6.657680 34.904206 0.373625 -1.829401 23.084007 -0.000001 -0.000002 0.000001 6.595918 -16.402373 51.253251 0.465286 -2.030932 25.805153 0.000001 0.000001 0.000001 -0.000001 -0.000001 0.000003 0.000000 -0.000001 -0.000001 0.000000 -0.000001 -0.000001 0.000000 -0.000001 -0.000001 0.000000 -0.000001 -0.000001 0.000000 -0.000001 -0.000001 0.000000 -0.000001 -0.000003 0.000001 0.000001 0.000001 0.000001 0.000001 0.000001 -0.000000 0.000000 0.000000 -0.000000 0.000000 -0.000000 
